# xmcd
#
# Track frame offsets:
# 150
# 11167
# 19165
# 28806
# 37816
# 40622
# 45127
# 54885
# 61847
# 65619
# 68920
# 79934
# 86588
# 104519
# 113989
# 117144
# 125563
# 135569
# 145456
# 153584
#
# Disc length: 2113 seconds
#
# Revision: 0
# Processed by: cddbd v1.5.1PL0 Copyright (c) Steve Scherf et al.
# Submitted via: Audion 3.0.2 (http://www.panic.com/audion/)
#
DISCID=0c083f14
DTITLE=Dominik Scherrer - Alice Through The Looking Glass
DYEAR=1900
DGENRE=
TTITLE0=Alice Through The Looking Glass
TTITLE1=Alice Through The Looking Glass
TTITLE2=Alice Through The Looking Glass
TTITLE3=Alice Through The Looking Glass
TTITLE4=Alice Through The Looking Glass
TTITLE5=Alice Through The Looking Glass
TTITLE6=Alice Through The Looking Glass
TTITLE7=Alice Through The Looking Glass
TTITLE8=Alice Through The Looking Glass
TTITLE9=Alice Through The Looking Glass
TTITLE10=Alice Through The Looking Glass
TTITLE11=Alice Through The Looking Glass
TTITLE12=Alice Through The Looking Glass
TTITLE13=Alice Through The Looking Glass
TTITLE14=Alice Through The Looking Glass
TTITLE15=Alice Through The Looking Glass
TTITLE16=Alice Through The Looking Glass
TTITLE17=Alice Through The Looking Glass
TTITLE18=Alice Through The Looking Glass
TTITLE19=Alice Through The Looking Glass
EXTD=
EXTT0=
EXTT1=
EXTT2=
EXTT3=
EXTT4=
EXTT5=
EXTT6=
EXTT7=
EXTT8=
EXTT9=
EXTT10=
EXTT11=
EXTT12=
EXTT13=
EXTT14=
EXTT15=
EXTT16=
EXTT17=
EXTT18=
EXTT19=
PLAYORDER=
